<svg aria-hidden="true" style="width:0;height:0;position:absolute;overflow:hidden" xmlns="http://www.w3.org/2000/svg"><defs><symbol id="icon-hour-glass" viewBox="0 0 24 24"><path d="M17.086 12C20.315 9.953 22.5 6.019 22.5 1.5c0-.508-.028-1.009-.082-1.5H1.581c-.054.491-.082.992-.082 1.5 0 4.519 2.186 8.453 5.414 10.5-3.229 2.047-5.414 5.981-5.414 10.5 0 .508.028 1.009.082 1.5h20.837c.054-.491.082-.992.082-1.5 0-4.519-2.186-8.453-5.414-10.5zM3.75 22.5c0-4.381 1.879-8.096 5.25-9.321v-2.357c-3.371-1.226-5.25-4.94-5.25-9.321h16.5c0 4.381-1.879 8.096-5.25 9.321v2.357c3.371 1.226 5.25 4.941 5.25 9.321H3.75zm10.772-6.806c-1.679-.953-1.772-2.188-1.772-2.938v-1.505c0-.75.089-1.99 1.775-2.945.902-.524 1.683-1.321 2.275-2.305H7.2c.592.985 1.374 1.782 2.277 2.306 1.679.953 1.772 2.188 1.772 2.938v1.505c0 .75-.089 1.99-1.775 2.945-1.702.989-2.97 2.946-3.354 5.305h11.758c-.384-2.36-1.653-4.318-3.357-5.306z"/></symbol><symbol id="icon-switch" viewBox="0 0 32 32"><path d="M20 4.581V8.83a10 10 0 0 1 3.071 2.099C24.96 12.818 26 15.329 26 18s-1.04 5.182-2.929 7.071C21.182 26.96 18.671 28 16 28s-5.182-1.04-7.071-2.929C7.04 23.182 6 20.671 6 18s1.04-5.182 2.929-7.071A9.982 9.982 0 0 1 12 8.83V4.581C6.217 6.302 2 11.658 2 18c0 7.732 6.268 14 14 14s14-6.268 14-14c0-6.342-4.217-11.698-10-13.419zM14 0h4v16h-4z"/></symbol><symbol id="icon-brightness-contrast" viewBox="0 0 32 32"><path d="M16 8a8 8 0 1 0 0 16 8 8 0 0 0 0-16zm0 13V11c2.757 0 5 2.243 5 5s-2.243 5-5 5zm0 5a2 2 0 0 1 2 2v2a2 2 0 1 1-4 0v-2a2 2 0 0 1 2-2zm0-20a2 2 0 0 1-2-2V2a2 2 0 1 1 4 0v2a2 2 0 0 1-2 2zm14 8a2 2 0 1 1 0 4h-2a2 2 0 1 1 0-4h2zM6 16a2 2 0 0 1-2 2H2a2 2 0 1 1 0-4h2a2 2 0 0 1 2 2zm19.899 7.071 1.414 1.414a2 2 0 1 1-2.828 2.828l-1.414-1.414a2 2 0 1 1 2.828-2.828zM6.101 8.929 4.687 7.515a2 2 0 1 1 2.828-2.828l1.414 1.414a2 2 0 1 1-2.828 2.828zm19.798 0a2 2 0 1 1-2.828-2.828l1.414-1.414a2 2 0 1 1 2.828 2.828l-1.414 1.414zM6.101 23.071a2 2 0 1 1 2.828 2.828l-1.414 1.414a2 2 0 1 1-2.828-2.828l1.414-1.414z"/></symbol><symbol id="icon-color-settings" viewBox="0 0 32 32"><path d="M16 0C7.163 0 0 7.163 0 16s7.163 16 16 16 16-7.163 16-16S24.837 0 16 0zm0 28C9.373 28 4 22.627 4 16S9.373 4 16 4s12 5.373 12 12-5.373 12-12 12zm-6-12a6 6 0 1 1 12 0 6 6 0 0 1-12 0z"/></symbol><symbol id="icon-color-settings-bg" viewBox="0 0 32 32"><path d="M16 0C7.163 0 0 7.163 0 16s7.163 16 16 16 16-7.163 16-16S24.837 0 16 0zm0 20a4 4 0 1 1 0-8 4 4 0 0 1 0 8z"/></symbol><symbol id="icon-color-settings-button" viewBox="0 0 32 32"><path d="M16 0C7.163 0 0 7.163 0 16s7.163 16 16 16 16-7.163 16-16S24.837 0 16 0zm0 28C9.373 28 4 22.627 4 16S9.373 4 16 4s12 5.373 12 12-5.373 12-12 12z"/></symbol><symbol id="icon-music" viewBox="0 0 32 32"><path d="M31.286.469a1.996 1.996 0 0 0-1.633-.438l-17.002 3A1.998 1.998 0 0 0 10.999 5v17.17C9.984 21.434 8.667 21 7.205 21c-.85 0-1.7.141-2.529.416-1.898.633-3.42 1.902-4.176 3.484-.584 1.223-.659 2.553-.214 3.746C1.047 30.684 3.209 32 5.794 32c.85 0 1.7-.139 2.528-.416 1.897-.631 3.419-1.9 4.175-3.48A4.963 4.963 0 0 0 12.98 26h.018V10c.115 0 .232-.01.348-.029l16.655-2.939V19.17c-1.016-.736-2.332-1.17-3.795-1.17-.85 0-1.701.141-2.529.416-1.898.633-3.42 1.902-4.174 3.484-.584 1.223-.66 2.553-.215 3.746C20.05 27.684 22.21 29 24.796 29a7.96 7.96 0 0 0 2.529-.416c1.896-.631 3.418-1.9 4.174-3.48A4.964 4.964 0 0 0 31.983 23h.018V2c0-.59-.262-1.152-.715-1.531zM7.688 29.688c-2.396.799-4.873.018-5.529-1.74-.658-1.76.751-3.834 3.146-4.633 2.396-.799 4.873-.02 5.529 1.74.659 1.759-.75 3.834-3.146 4.633zm18.965-3c-2.398.799-4.875.018-5.531-1.74-.658-1.76.752-3.834 3.146-4.633 2.398-.799 4.875-.02 5.531 1.74.659 1.759-.749 3.834-3.146 4.633zM29.96 5 12.958 8V5L29.96 2v3z"/></symbol></defs><symbol id="icon-target" viewBox="0 0 24 24"><path d="M23 12c0-3.037-1.232-5.789-3.222-7.778S15.037 1 12 1 6.211 2.232 4.222 4.222 1 8.963 1 12s1.232 5.789 3.222 7.778S8.963 23 12 23s5.789-1.232 7.778-3.222S23 15.037 23 12zm-2 0c0 2.486-1.006 4.734-2.636 6.364S14.486 21 12 21s-4.734-1.006-6.364-2.636S3 14.486 3 12s1.006-4.734 2.636-6.364S9.514 3 12 3s4.734 1.006 6.364 2.636S21 9.514 21 12zm-2 0c0-1.933-.785-3.684-2.05-4.95S13.933 5 12 5s-3.684.785-4.95 2.05S5 10.067 5 12s.785 3.684 2.05 4.95S10.067 19 12 19s3.684-.785 4.95-2.05S19 13.933 19 12zm-2 0c0 1.381-.559 2.63-1.464 3.536S13.381 17 12 17s-2.63-.559-3.536-1.464S7 13.381 7 12s.559-2.63 1.464-3.536S10.619 7 12 7s2.63.559 3.536 1.464S17 10.619 17 12zm-2 0a2.997 2.997 0 0 0-5.121-2.121 2.997 2.997 0 0 0 0 4.242 2.997 2.997 0 0 0 4.242 0A2.997 2.997 0 0 0 15 12zm-2 0c0 .276-.111.525-.293.707S12.276 13 12 13s-.525-.111-.707-.293S11 12.276 11 12s.111-.525.293-.707S11.724 11 12 11s.525.111.707.293.293.431.293.707z"/></symbol><symbol id="icon-info" viewBox="0 0 24 24"><path d="M23 12c0-3.037-1.232-5.789-3.222-7.778S15.037 1 12 1 6.211 2.232 4.222 4.222 1 8.963 1 12s1.232 5.789 3.222 7.778S8.963 23 12 23s5.789-1.232 7.778-3.222S23 15.037 23 12zm-2 0c0 2.486-1.006 4.734-2.636 6.364S14.486 21 12 21s-4.734-1.006-6.364-2.636S3 14.486 3 12s1.006-4.734 2.636-6.364S9.514 3 12 3s4.734 1.006 6.364 2.636S21 9.514 21 12zm-8 4v-4a1 1 0 0 0-2 0v4a1 1 0 0 0 2 0zm-1-7a1 1 0 1 0 0-2 1 1 0 0 0 0 2z"/></symbol></svg>