<svg aria-hidden="true" style="position: absolute; width: 0; height: 0; overflow: hidden;" version="1.1" xmlns="http://www.w3.org/2000/svg" xmlns:xlink="http://www.w3.org/1999/xlink">
<defs>
<symbol id="icon-hour-glass" viewBox="0 0 24 24">
<path d="M17.086 12c3.229-2.047 5.414-5.981 5.414-10.5 0-0.508-0.028-1.009-0.082-1.5h-20.837c-0.054 0.491-0.082 0.992-0.082 1.5 0 4.519 2.186 8.453 5.414 10.5-3.229 2.047-5.414 5.981-5.414 10.5 0 0.508 0.028 1.009 0.082 1.5h20.837c0.054-0.491 0.082-0.992 0.082-1.5 0-4.519-2.186-8.453-5.414-10.5zM3.75 22.5c0-4.381 1.879-8.096 5.25-9.321v-2.357c-3.371-1.226-5.25-4.94-5.25-9.321v0h16.5c0 4.381-1.879 8.096-5.25 9.321v2.357c3.371 1.226 5.25 4.941 5.25 9.321h-16.5zM14.522 15.694c-1.679-0.953-1.772-2.188-1.772-2.938v-1.505c0-0.75 0.089-1.99 1.775-2.945 0.902-0.524 1.683-1.321 2.275-2.305h-9.6c0.592 0.985 1.374 1.782 2.277 2.306 1.679 0.953 1.772 2.188 1.772 2.938v1.505c0 0.75-0.089 1.99-1.775 2.945-1.702 0.989-2.97 2.946-3.354 5.305h11.758c-0.384-2.36-1.653-4.318-3.357-5.306z"></path>
</symbol>
<symbol id="icon-switch" viewBox="0 0 32 32">
<path d="M20 4.581v4.249c1.131 0.494 2.172 1.2 3.071 2.099 1.889 1.889 2.929 4.4 2.929 7.071s-1.040 5.182-2.929 7.071c-1.889 1.889-4.4 2.929-7.071 2.929s-5.182-1.040-7.071-2.929c-1.889-1.889-2.929-4.4-2.929-7.071s1.040-5.182 2.929-7.071c0.899-0.899 1.94-1.606 3.071-2.099v-4.249c-5.783 1.721-10 7.077-10 13.419 0 7.732 6.268 14 14 14s14-6.268 14-14c0-6.342-4.217-11.698-10-13.419zM14 0h4v16h-4z"></path>
</symbol>
<symbol id="icon-brightness-contrast" viewBox="0 0 32 32">
<path d="M16 8c-4.418 0-8 3.582-8 8s3.582 8 8 8 8-3.582 8-8-3.582-8-8-8zM16 21v-10c2.757 0 5 2.243 5 5s-2.243 5-5 5zM16 26c1.105 0 2 0.895 2 2v2c0 1.105-0.895 2-2 2s-2-0.895-2-2v-2c0-1.105 0.895-2 2-2zM16 6c-1.105 0-2-0.895-2-2v-2c0-1.105 0.895-2 2-2s2 0.895 2 2v2c0 1.105-0.895 2-2 2zM30 14c1.105 0 2 0.895 2 2s-0.895 2-2 2h-2c-1.105 0-2-0.895-2-2s0.895-2 2-2h2zM6 16c0 1.105-0.895 2-2 2h-2c-1.105 0-2-0.895-2-2s0.895-2 2-2h2c1.105 0 2 0.895 2 2zM25.899 23.071l1.414 1.414c0.781 0.781 0.781 2.047 0 2.828s-2.047 0.781-2.828 0l-1.414-1.414c-0.781-0.781-0.781-2.047 0-2.828s2.047-0.781 2.828 0zM6.101 8.929l-1.414-1.414c-0.781-0.781-0.781-2.047 0-2.828s2.047-0.781 2.828 0l1.414 1.414c0.781 0.781 0.781 2.047 0 2.828s-2.047 0.781-2.828 0zM25.899 8.929c-0.781 0.781-2.047 0.781-2.828 0s-0.781-2.047 0-2.828l1.414-1.414c0.781-0.781 2.047-0.781 2.828 0s0.781 2.047 0 2.828l-1.414 1.414zM6.101 23.071c0.781-0.781 2.047-0.781 2.828 0s0.781 2.047 0 2.828l-1.414 1.414c-0.781 0.781-2.047 0.781-2.828 0s-0.781-2.047 0-2.828l1.414-1.414z"></path>
</symbol>
<symbol id="icon-color-settings" viewBox="0 0 32 32">
<path d="M16 0c-8.837 0-16 7.163-16 16s7.163 16 16 16 16-7.163 16-16-7.163-16-16-16zM16 28c-6.627 0-12-5.373-12-12s5.373-12 12-12c6.627 0 12 5.373 12 12s-5.373 12-12 12zM10 16c0-3.314 2.686-6 6-6s6 2.686 6 6c0 3.314-2.686 6-6 6s-6-2.686-6-6z"></path>
</symbol>
<symbol id="icon-color-settings-bg" viewBox="0 0 32 32">
<path d="M16 0c-8.837 0-16 7.163-16 16s7.163 16 16 16 16-7.163 16-16-7.163-16-16-16zM16 20c-2.209 0-4-1.791-4-4s1.791-4 4-4c2.209 0 4 1.791 4 4s-1.791 4-4 4z"></path>
</symbol>
<symbol id="icon-color-settings-button" viewBox="0 0 32 32">
<path d="M16 0c-8.837 0-16 7.163-16 16s7.163 16 16 16 16-7.163 16-16-7.163-16-16-16zM16 28c-6.627 0-12-5.373-12-12s5.373-12 12-12c6.627 0 12 5.373 12 12s-5.373 12-12 12z"></path>
</symbol>
<symbol id="icon-music" viewBox="0 0 32 32">
<path d="M31.286 0.469c-0.363-0.305-0.818-0.469-1.285-0.469-0.115 0-0.232 0.010-0.348 0.031l-17.002 3c-0.956 0.168-1.652 0.998-1.652 1.969v17.17c-1.015-0.736-2.332-1.17-3.794-1.17-0.85 0-1.7 0.141-2.529 0.416-1.898 0.633-3.42 1.902-4.176 3.484-0.584 1.223-0.659 2.553-0.214 3.746 0.761 2.038 2.923 3.354 5.508 3.354 0.85 0 1.7-0.139 2.528-0.416 1.897-0.631 3.419-1.9 4.175-3.48 0.325-0.682 0.477-1.396 0.483-2.104h0.018v-16c0.115 0 0.232-0.010 0.348-0.029l16.655-2.939v12.138c-1.016-0.736-2.332-1.17-3.795-1.17-0.85 0-1.701 0.141-2.529 0.416-1.898 0.633-3.42 1.902-4.174 3.484-0.584 1.223-0.66 2.553-0.215 3.746 0.762 2.038 2.922 3.354 5.508 3.354 0.85 0 1.701-0.139 2.529-0.416 1.896-0.631 3.418-1.9 4.174-3.48 0.326-0.682 0.477-1.396 0.484-2.104h0.018v-21c0-0.59-0.262-1.152-0.715-1.531zM7.688 29.688c-2.396 0.799-4.873 0.018-5.529-1.74-0.658-1.76 0.751-3.834 3.146-4.633 2.396-0.799 4.873-0.020 5.529 1.74 0.659 1.759-0.75 3.834-3.146 4.633zM26.653 26.688c-2.398 0.799-4.875 0.018-5.531-1.74-0.658-1.76 0.752-3.834 3.146-4.633 2.398-0.799 4.875-0.020 5.531 1.74 0.659 1.759-0.749 3.834-3.146 4.633zM29.96 5l-17.002 3v-3l17.002-3v3z"></path>
</symbol>
</defs>
<symbol id="icon-target" viewBox="0 0 24 24">
<path d="M23 12c0-3.037-1.232-5.789-3.222-7.778s-4.741-3.222-7.778-3.222-5.789 1.232-7.778 3.222-3.222 4.741-3.222 7.778 1.232 5.789 3.222 7.778 4.741 3.222 7.778 3.222 5.789-1.232 7.778-3.222 3.222-4.741 3.222-7.778zM21 12c0 2.486-1.006 4.734-2.636 6.364s-3.878 2.636-6.364 2.636-4.734-1.006-6.364-2.636-2.636-3.878-2.636-6.364 1.006-4.734 2.636-6.364 3.878-2.636 6.364-2.636 4.734 1.006 6.364 2.636 2.636 3.878 2.636 6.364zM19 12c0-1.933-0.785-3.684-2.050-4.95s-3.017-2.050-4.95-2.050-3.684 0.785-4.95 2.050-2.050 3.017-2.050 4.95 0.785 3.684 2.050 4.95 3.017 2.050 4.95 2.050 3.684-0.785 4.95-2.050 2.050-3.017 2.050-4.95zM17 12c0 1.381-0.559 2.63-1.464 3.536s-2.155 1.464-3.536 1.464-2.63-0.559-3.536-1.464-1.464-2.155-1.464-3.536 0.559-2.63 1.464-3.536 2.155-1.464 3.536-1.464 2.63 0.559 3.536 1.464 1.464 2.155 1.464 3.536zM15 12c0-0.828-0.337-1.58-0.879-2.121s-1.293-0.879-2.121-0.879-1.58 0.337-2.121 0.879-0.879 1.293-0.879 2.121 0.337 1.58 0.879 2.121 1.293 0.879 2.121 0.879 1.58-0.337 2.121-0.879 0.879-1.293 0.879-2.121zM13 12c0 0.276-0.111 0.525-0.293 0.707s-0.431 0.293-0.707 0.293-0.525-0.111-0.707-0.293-0.293-0.431-0.293-0.707 0.111-0.525 0.293-0.707 0.431-0.293 0.707-0.293 0.525 0.111 0.707 0.293 0.293 0.431 0.293 0.707z"></path>
</symbol>
</svg>
